<svg xmlns="http://www.w3.org/2000/svg" viewBox="0 0 512 512" role="img" aria-label="SpoilIQ inventory analytics icon">
  <path fill="#1ECE5E" fill-rule="evenodd" d="
    M132 92
    C124 92 119 95 113 102
    L72 153
    C69 157 68 160 68 165
    L68 174
    C68 177 70 179 73 179
    L241 179
    L241 96
    C241 94 239 92 237 92
    Z

    M275 92
    C273 92 271 94 271 96
    L271 179
    L439 179
    C442 179 444 177 444 174
    L444 165
    C444 160 443 157 440 153
    L399 102
    C393 95 388 92 380 92
    Z

    M68 207
    L68 404
    C68 438 90 460 124 460
    L388 460
    C422 460 444 438 444 404
    L444 207
    C444 204 442 202 439 202
    L73 202
    C70 202 68 204 68 207
    Z

    M144.7 390.8
    C138.1 397.4 127.4 397.4 120.8 390.8
    C114.2 384.2 114.2 373.5 120.8 366.9
    L196.2 291.5
    C205.7 282 220.5 280.8 231.4 288.5
    L286.3 327.2
    C289.5 329.5 293.9 329.1 296.7 326.3
    L374.1 248.9
    C380.7 242.3 391.4 242.3 398 248.9
    C404.6 255.5 404.6 266.2 398 272.8
    L315.7 355.1
    C306.2 364.6 291.4 365.8 280.5 358.1
    L225.6 319.4
    C222.4 317.1 218 317.5 215.2 320.3
    Z
  "/>
</svg>
